<svg width="22" height="27" viewBox="0 0 22 27" fill="none" xmlns="http://www.w3.org/2000/svg">
<path d="M9.60798 22.7923L3.05296 17.2928L3.05293 17.2928C2.79615 17.0774 2.45593 16.962 2.10847 16.962C1.76101 16.962 1.42079 17.0774 1.16401 17.2928C0.905925 17.5093 0.75 17.8132 0.75 18.1417C0.75 18.4702 0.905926 18.7742 1.16401 18.9907L10.0204 26.4186C10.0204 26.4186 10.0205 26.4186 10.0205 26.4187C10.148 26.5258 10.2971 26.609 10.4586 26.6652C10.6201 26.7214 10.7921 26.75 10.965 26.75C11.138 26.75 11.31 26.7214 11.4715 26.6652C11.633 26.609 11.7821 26.5258 11.9096 26.4187C11.9096 26.4186 11.9097 26.4186 11.9097 26.4186L20.7661 18.9907C21.0242 18.7742 21.1801 18.4702 21.1801 18.1417C21.1801 17.8132 21.0242 17.5093 20.7661 17.2928C20.5093 17.0774 20.1691 16.962 19.8216 16.962C19.4742 16.962 19.1339 17.0774 18.8772 17.2928L18.8771 17.2928L12.3221 22.7923V1.42851C12.3221 1.10034 12.1663 0.796645 11.9085 0.580407C11.652 0.365261 11.3121 0.25 10.965 0.25C10.618 0.25 10.2781 0.365261 10.0216 0.580407C9.76376 0.796645 9.60798 1.10034 9.60798 1.42851V22.7923Z" fill="url(#paint0_linear_163_674)" stroke="url(#paint1_linear_163_674)" stroke-width="0.5"/>
<defs>
<linearGradient id="paint0_linear_163_674" x1="10.965" y1="0.499999" x2="10.965" y2="26.4698" gradientUnits="userSpaceOnUse">
<stop stop-color="#FF7C04"/>
<stop offset="1" stop-color="#FF2A00"/>
</linearGradient>
<linearGradient id="paint1_linear_163_674" x1="10.965" y1="0.499999" x2="10.965" y2="26.4698" gradientUnits="userSpaceOnUse">
<stop stop-color="#FF7C04"/>
<stop offset="1" stop-color="#FF2A00"/>
</linearGradient>
</defs>
</svg>
