<svg width="17" height="17" viewBox="0 0 17 17" fill="none" xmlns="http://www.w3.org/2000/svg">
<path d="M12.0206 5.40469C12.0923 5.33554 12.1494 5.25281 12.1888 5.16132C12.2281 5.06984 12.2489 4.97143 12.2498 4.87185C12.2507 4.77227 12.2318 4.6735 12.1941 4.58131C12.1564 4.48912 12.1008 4.40535 12.0304 4.3349C11.96 4.26445 11.8763 4.20872 11.7841 4.17096C11.692 4.13321 11.5932 4.11419 11.4936 4.11501C11.3941 4.11582 11.2956 4.13647 11.2041 4.17573C11.1126 4.21499 11.0298 4.27209 10.9606 4.34369L7.95459 7.34869L4.94959 4.34369C4.88093 4.27 4.79813 4.2109 4.70613 4.16991C4.61413 4.12892 4.51481 4.10687 4.41411 4.1051C4.31341 4.10332 4.21338 4.12185 4.11999 4.15957C4.0266 4.19729 3.94177 4.25343 3.87055 4.32465C3.79933 4.39587 3.74319 4.4807 3.70546 4.57409C3.66774 4.66748 3.64922 4.76751 3.651 4.86821C3.65277 4.96891 3.67481 5.06823 3.71581 5.16023C3.7568 5.25223 3.8159 5.33503 3.88959 5.40369L6.89259 8.40969L3.88759 11.4147C3.75511 11.5569 3.68298 11.7449 3.68641 11.9392C3.68984 12.1335 3.76855 12.3189 3.90597 12.4563C4.04338 12.5937 4.22876 12.6724 4.42306 12.6759C4.61737 12.6793 4.80541 12.6072 4.94759 12.4747L7.95459 9.46969L10.9596 12.4757C11.1018 12.6082 11.2898 12.6803 11.4841 12.6769C11.6784 12.6734 11.8638 12.5947 12.0012 12.4573C12.1386 12.3199 12.2173 12.1345 12.2208 11.9402C12.2242 11.7459 12.1521 11.5579 12.0196 11.4157L9.01659 8.40969L12.0206 5.40469Z" fill="#9F9F9F"/>
</svg>
