<svg width="41" height="41" viewBox="0 0 41 41" fill="current" xmlns="http://www.w3.org/2000/svg">
<path d="M36.3337 18.6663V7.33301C36.3337 4.83301 35.267 3.83301 32.617 3.83301L25.8837 3.83301C23.2337 3.83301 22.167 4.83301 22.167 7.33301L22.167 18.6663C22.167 21.1663 23.2337 22.1663 25.8837 22.1663H32.617C35.267 22.1663 36.3337 21.1663 36.3337 18.6663Z" fill="#F1935C"/>
<path d="M18.8337 22.333V33.6663C18.8337 36.1663 17.767 37.1663 15.117 37.1663H8.38366C5.73366 37.1663 4.66699 36.1663 4.66699 33.6663L4.66699 22.333C4.66699 19.833 5.73366 18.833 8.38366 18.833H15.117C17.767 18.833 18.8337 19.833 18.8337 22.333Z" fill="#F1935C"/>
<path d="M36.3337 33.6667V29C36.3337 26.5 35.267 25.5 32.617 25.5H25.8837C23.2337 25.5 22.167 26.5 22.167 29V33.6667C22.167 36.1667 23.2337 37.1667 25.8837 37.1667H32.617C35.267 37.1667 36.3337 36.1667 36.3337 33.6667Z" fill="#F1935C"/>
<path d="M18.8337 11.9997V7.33301C18.8337 4.83301 17.767 3.83301 15.117 3.83301L8.38366 3.83301C5.73366 3.83301 4.66699 4.83301 4.66699 7.33301V11.9997C4.66699 14.4997 5.73366 15.4997 8.38366 15.4997L15.117 15.4997C17.767 15.4997 18.8337 14.4997 18.8337 11.9997Z" fill="#F1935C"/>
</svg>
