<svg width="36" height="29" viewBox="0 0 36 29" fill="none" xmlns="http://www.w3.org/2000/svg">
<path d="M1 12.7635V2.0083C1 1.45143 1.45143 1 2.0083 1H12.3905C12.6312 1 12.8639 1.08611 13.0467 1.24275L18.3621 5.79875C18.5448 5.95539 18.7775 6.0415 19.0183 6.0415H33.6017C34.1586 6.0415 34.61 6.49294 34.61 7.0498V12.7635M1 12.7635V26.8797C1 27.4366 1.45143 27.888 2.0083 27.888H33.6017C34.1586 27.888 34.61 27.4366 34.61 26.8797V12.7635M1 12.7635H34.61Z" />
<path d="M1 12.7635V2.0083C1 1.45143 1.45143 1 2.0083 1H12.3905C12.6312 1 12.8639 1.08611 13.0467 1.24275L18.3621 5.79875C18.5448 5.95539 18.7775 6.0415 19.0183 6.0415H33.6017C34.1586 6.0415 34.61 6.49294 34.61 7.0498V12.7635M1 12.7635V26.8797C1 27.4366 1.45143 27.888 2.0083 27.888H33.6017C34.1586 27.888 34.61 27.4366 34.61 26.8797V12.7635M1 12.7635H34.61" stroke="black" stroke-linecap="round" stroke-linejoin="round"/>
</svg>
