<svg width="73" height="76" viewBox="0 0 73 76" fill="none" xmlns="http://www.w3.org/2000/svg">
<g clip-path="url(#clip0_163_513)">
<path d="M25.25 33.2772C24.6533 33.2772 24.081 33.526 23.659 33.9689C23.2371 34.4117 23 35.0123 23 35.6386C23 36.2649 23.2371 36.8655 23.659 37.3084C24.081 37.7512 24.6533 38 25.25 38H47.75C48.3467 38 48.919 37.7512 49.341 37.3084C49.7629 36.8655 50 36.2649 50 35.6386C50 35.0123 49.7629 34.4117 49.341 33.9689C48.919 33.526 48.3467 33.2772 47.75 33.2772H25.25ZM23 45.0842C23 44.4579 23.2371 43.8572 23.659 43.4144C24.081 42.9716 24.6533 42.7228 25.25 42.7228H47.75C48.3467 42.7228 48.919 42.9716 49.341 43.4144C49.7629 43.8572 50 44.4579 50 45.0842C50 45.7104 49.7629 46.3111 49.341 46.7539C48.919 47.1968 48.3467 47.4455 47.75 47.4455H25.25C24.6533 47.4455 24.081 47.1968 23.659 46.7539C23.2371 46.3111 23 45.7104 23 45.0842ZM23 54.5297C23 53.9034 23.2371 53.3028 23.659 52.8599C24.081 52.4171 24.6533 52.1683 25.25 52.1683H34.25C34.8467 52.1683 35.419 52.4171 35.841 52.8599C36.2629 53.3028 36.5 53.9034 36.5 54.5297C36.5 55.156 36.2629 55.7566 35.841 56.1994C35.419 56.6423 34.8467 56.8911 34.25 56.8911H25.25C24.6533 56.8911 24.081 56.6423 23.659 56.1994C23.2371 55.7566 23 55.156 23 54.5297Z" fill="#767676"/>
<path d="M43.25 0.217819H18.5C16.1131 0.217819 13.8239 1.21297 12.136 2.98436C10.4482 4.75574 9.5 7.15825 9.5 9.66336V66.3366C9.5 68.8417 10.4482 71.2443 12.136 73.0156C13.8239 74.787 16.1131 75.7822 18.5 75.7822H54.5C56.8869 75.7822 59.1761 74.787 60.864 73.0156C62.5518 71.2443 63.5 68.8417 63.5 66.3366V21.4703L43.25 0.217819ZM43.25 4.94059V14.3861C43.25 16.265 43.9612 18.0669 45.227 19.3954C46.4929 20.7239 48.2098 21.4703 50 21.4703H59V66.3366C59 67.5892 58.5259 68.7904 57.682 69.6761C56.8381 70.5618 55.6935 71.0594 54.5 71.0594H18.5C17.3065 71.0594 16.1619 70.5618 15.318 69.6761C14.4741 68.7904 14 67.5892 14 66.3366V9.66336C14 8.41081 14.4741 7.20955 15.318 6.32386C16.1619 5.43817 17.3065 4.94059 18.5 4.94059H43.25Z" fill="#767676"/>
</g>
<defs>
<clipPath id="clip0_163_513">
<rect width="72" height="75.5644" fill="white" transform="translate(0.5 0.217819)"/>
</clipPath>
</defs>
</svg>
