<svg width="69" height="68" viewBox="0 0 69 68" fill="none" xmlns="http://www.w3.org/2000/svg">
<g clip-path="url(#clip0_163_521)">
<path fill-rule="evenodd" clip-rule="evenodd" d="M32.9955 46.1295C33.1929 46.3274 33.4274 46.4844 33.6856 46.5915C33.9437 46.6986 34.2205 46.7538 34.5 46.7538C34.7795 46.7538 35.0563 46.6986 35.3144 46.5915C35.5726 46.4844 35.8071 46.3274 36.0045 46.1295L44.5045 37.6295C44.7021 37.4319 44.8588 37.1974 44.9657 36.9392C45.0726 36.6811 45.1277 36.4044 45.1277 36.125C45.1277 35.8456 45.0726 35.5689 44.9657 35.3108C44.8588 35.0526 44.7021 34.8181 44.5045 34.6205C44.3069 34.4229 44.0724 34.2662 43.8142 34.1593C43.5561 34.0523 43.2794 33.9973 43 33.9973C42.7206 33.9973 42.4439 34.0523 42.1858 34.1593C41.9276 34.2662 41.6931 34.4229 41.4955 34.6205L36.625 39.4952V23.375C36.625 22.8114 36.4011 22.2709 36.0026 21.8724C35.6041 21.4739 35.0636 21.25 34.5 21.25C33.9364 21.25 33.3959 21.4739 32.9974 21.8724C32.5989 22.2709 32.375 22.8114 32.375 23.375V39.4952L27.5045 34.6205C27.1055 34.2215 26.5643 33.9973 26 33.9973C25.4357 33.9973 24.8945 34.2215 24.4955 34.6205C24.0965 35.0195 23.8723 35.5607 23.8723 36.125C23.8723 36.6893 24.0965 37.2305 24.4955 37.6295L32.9955 46.1295Z" fill="url(#paint0_linear_163_521)"/>
<path d="M19.2255 14.2035C23.4733 10.5406 28.891 8.51759 34.5 8.5C45.9325 8.5 55.4228 17 56.4555 27.9608C63.2215 28.917 68.5 34.5822 68.5 41.5352C68.5 49.1682 62.1335 55.25 54.4198 55.25H16.5693C7.759 55.25 0.5 48.3055 0.5 39.6015C0.5 32.1087 5.8805 25.9037 13.0035 24.3312C13.6112 20.6635 15.97 17.0085 19.2255 14.2035ZM22.0007 17.4207C18.7835 20.196 17.1005 23.5408 17.1005 26.1588V28.0627L15.2092 28.271C9.272 28.9212 4.75 33.796 4.75 39.6015C4.75 45.8363 9.9775 51 16.5693 51H54.4198C59.915 51 64.25 46.699 64.25 41.5352C64.25 36.3672 59.915 32.0662 54.4198 32.0662H52.2948V29.9412C52.299 20.5063 44.394 12.75 34.5 12.75C29.9095 12.7683 25.4766 14.4221 22.0007 17.4207Z" fill="url(#paint1_linear_163_521)"/>
</g>
<defs>
<linearGradient id="paint0_linear_163_521" x1="34.5" y1="21.25" x2="34.5" y2="46.7242" gradientUnits="userSpaceOnUse">
<stop stop-color="#FF7C04"/>
<stop offset="1" stop-color="#FF2A00"/>
</linearGradient>
<linearGradient id="paint1_linear_163_521" x1="34.5" y1="8.5" x2="34.5" y2="55.1957" gradientUnits="userSpaceOnUse">
<stop stop-color="#FF7C04"/>
<stop offset="1" stop-color="#FF2A00"/>
</linearGradient>
<clipPath id="clip0_163_521">
<rect width="68" height="68" fill="white" transform="translate(0.5)"/>
</clipPath>
</defs>
</svg>
