<svg width="24" height="24" viewBox="0 0 24 24" fill="none" xmlns="http://www.w3.org/2000/svg">
<path d="M17.7429 11.2234C17.1868 10.754 16.3556 10.8251 15.8867 11.3812L13.3045 14.4431V1.44908C13.3045 0.721734 12.7149 0.131897 11.9873 0.131897C11.26 0.131897 10.6701 0.721734 10.6701 1.44908V14.4431L8.0879 11.3812C7.61898 10.8251 6.7881 10.7548 6.23172 11.2234C5.67561 11.6923 5.605 12.5235 6.07392 13.0796L10.9802 18.8976C10.9999 18.9208 11.0213 18.9419 11.0424 18.9637C11.0497 18.9714 11.0566 18.9793 11.0642 18.9869C11.1169 19.0385 11.1738 19.0849 11.2336 19.1268C11.2452 19.135 11.2568 19.1429 11.2686 19.1508C11.3292 19.1903 11.3927 19.2251 11.4588 19.254C11.472 19.2598 11.4855 19.2646 11.4986 19.2701C11.5682 19.2978 11.6393 19.3209 11.7128 19.3365C11.722 19.3383 11.7315 19.3394 11.7407 19.3412C11.8213 19.3565 11.9035 19.366 11.987 19.366C12.0706 19.366 12.1525 19.3565 12.2331 19.3412C12.2423 19.3394 12.2518 19.3386 12.261 19.3365C12.3345 19.3209 12.4056 19.2978 12.4749 19.2701C12.4886 19.2646 12.5021 19.2598 12.5155 19.2538C12.5814 19.2248 12.6446 19.1903 12.7049 19.151C12.7173 19.1431 12.7291 19.135 12.741 19.1265C12.8005 19.0849 12.8572 19.0388 12.9096 18.9874C12.9175 18.9798 12.9246 18.9714 12.9323 18.9635C12.9531 18.9419 12.9747 18.9211 12.9939 18.8979L17.9002 13.0799C18.3696 12.5232 18.2987 11.6923 17.7429 11.2234Z" fill="#F1935C"/>
<path d="M21.1261 23.8413H2.84746C2.12011 23.8413 1.53027 23.2514 1.53027 22.5241V17.1626C1.53027 16.4748 2.03318 15.8604 2.71785 15.7951C3.50342 15.72 4.16465 16.3359 4.16465 17.106V20.9332C4.16465 21.0844 4.28715 21.2069 4.43836 21.2069H19.5354C19.6866 21.2069 19.8091 21.0844 19.8091 20.9332V17.1626C19.8091 16.4745 20.3123 15.8604 20.997 15.7951C21.7826 15.7203 22.4435 16.3359 22.4435 17.1062V22.5241C22.4433 23.2514 21.8537 23.8413 21.1261 23.8413Z" fill="#F1935C"/>
</svg>
