<svg width="67" height="77" viewBox="0 0 67 77" fill="none" xmlns="http://www.w3.org/2000/svg">
<circle cx="33.5" cy="38.5" r="33.5" fill="#F92B2B"/>
<path d="M36 15.4545L35.5455 48.9091H30.2727L29.8182 15.4545H36ZM32.9091 62.3636C31.7879 62.3636 30.8258 61.9621 30.0227 61.1591C29.2197 60.3561 28.8182 59.3939 28.8182 58.2727C28.8182 57.1515 29.2197 56.1894 30.0227 55.3864C30.8258 54.5833 31.7879 54.1818 32.9091 54.1818C34.0303 54.1818 34.9924 54.5833 35.7955 55.3864C36.5985 56.1894 37 57.1515 37 58.2727C37 59.0152 36.8106 59.697 36.4318 60.3182C36.0682 60.9394 35.5758 61.4394 34.9545 61.8182C34.3485 62.1818 33.6667 62.3636 32.9091 62.3636Z" fill="white"/>
</svg>
