<svg width="69" height="68" viewBox="0 0 69 68" fill="none" xmlns="http://www.w3.org/2000/svg">
<path d="M34.5 17C45.2384 17 54.815 23.035 59.49 32.5833C54.815 42.1317 45.2384 48.1667 34.5 48.1667C23.7617 48.1667 14.185 42.1317 9.51001 32.5833C14.185 23.035 23.7617 17 34.5 17ZM34.5 11.3333C20.3334 11.3333 8.23501 20.145 3.33334 32.5833C8.23501 45.0217 20.3334 53.8333 34.5 53.8333C48.6667 53.8333 60.765 45.0217 65.6667 32.5833C60.765 20.145 48.6667 11.3333 34.5 11.3333ZM34.5 25.5C38.41 25.5 41.5834 28.6733 41.5834 32.5833C41.5834 36.4933 38.41 39.6667 34.5 39.6667C30.59 39.6667 27.4167 36.4933 27.4167 32.5833C27.4167 28.6733 30.59 25.5 34.5 25.5ZM34.5 19.8333C27.4734 19.8333 21.75 25.5567 21.75 32.5833C21.75 39.61 27.4734 45.3333 34.5 45.3333C41.5267 45.3333 47.25 39.61 47.25 32.5833C47.25 25.5567 41.5267 19.8333 34.5 19.8333Z" fill="url(#paint0_linear_163_519)"/>
<defs>
<linearGradient id="paint0_linear_163_519" x1="34.5" y1="11.3333" x2="34.5" y2="53.784" gradientUnits="userSpaceOnUse">
<stop stop-color="#FF7C04"/>
<stop offset="1" stop-color="#FF2A00"/>
</linearGradient>
</defs>
</svg>
