<svg width="25" height="24" viewBox="0 0 25 24" fill="none" xmlns="http://www.w3.org/2000/svg">
<path d="M18.8915 14.4738C18.7869 14.4738 18.6813 14.4427 18.5893 14.3782C18.3512 14.2106 18.2938 13.8821 18.461 13.6442L21.1265 9.851L18.461 6.05777C18.2938 5.81962 18.3512 5.49111 18.5893 5.32383C18.8275 5.15602 19.156 5.21398 19.3233 5.45186L22.2016 9.54805C22.3291 9.72982 22.3291 9.97218 22.2016 10.154L19.3233 14.2499C19.2208 14.3958 19.0575 14.4738 18.8915 14.4738Z" fill="#9F9F9F"/>
<path d="M15.8303 8.0592C16.1211 8.0592 16.3571 7.82316 16.3571 7.53232V0.658711C16.3571 0.367876 16.1211 0.131836 15.8303 0.131836H3.20266C3.19923 0.131836 3.19633 0.132626 3.19291 0.13289C3.18316 0.13289 3.17341 0.134997 3.16367 0.135788C3.13153 0.138158 3.10044 0.1429 3.07041 0.150803C3.05829 0.153701 3.04696 0.157653 3.03537 0.161604C3.0056 0.171615 2.97715 0.183997 2.95002 0.199013C2.94343 0.202701 2.93606 0.204018 2.92973 0.207969C2.92657 0.209813 2.92447 0.212711 2.92157 0.214555C2.88732 0.236421 2.85518 0.261184 2.82673 0.290162C2.82173 0.295167 2.81804 0.301226 2.8133 0.306232C2.7909 0.331258 2.77088 0.358129 2.75323 0.387107C2.74691 0.397644 2.74138 0.408445 2.73585 0.419246C2.72215 0.445853 2.71108 0.473514 2.70186 0.502492C2.69844 0.513557 2.69449 0.524094 2.69185 0.535422C2.6821 0.575201 2.67578 0.616034 2.67578 0.658711V19.0432C2.67578 19.088 2.68316 19.1309 2.6937 19.1723C2.69659 19.1836 2.70028 19.1942 2.70397 19.205C2.71451 19.2374 2.72794 19.2679 2.74401 19.2972C2.74902 19.3059 2.75297 19.3151 2.75824 19.3235C2.78089 19.3591 2.80697 19.392 2.83727 19.4213C2.84306 19.4268 2.84965 19.431 2.85571 19.4365C2.88258 19.4602 2.91208 19.4811 2.94343 19.499C2.94897 19.5021 2.95318 19.5069 2.95871 19.51L11.1295 23.7811C11.2059 23.8215 11.2897 23.8412 11.3734 23.8412C11.468 23.8412 11.5626 23.8157 11.6464 23.7651C11.8039 23.6697 11.9003 23.4985 11.9003 23.3143V19.5701H15.8303C16.1211 19.5701 16.3571 19.3341 16.3571 19.0432V11.9865C16.3571 11.6957 16.1211 11.4596 15.8303 11.4596C15.5394 11.4596 15.3034 11.6957 15.3034 11.9865V18.5163H11.9003V4.92982C11.9003 4.73356 11.7912 4.55363 11.6174 4.46301L5.34783 1.18559H15.3034V7.53232C15.3034 7.82316 15.5394 8.0592 15.8303 8.0592Z" fill="#9F9F9F"/>
<path d="M21.7705 10.378H13.1548C12.864 10.378 12.6279 10.1419 12.6279 9.85109C12.6279 9.56026 12.864 9.32422 13.1548 9.32422H21.7705C22.0614 9.32422 22.2974 9.56026 22.2974 9.85109C22.2974 10.1419 22.0616 10.378 21.7705 10.378Z" fill="#9F9F9F"/>
</svg>
