<svg width="88" height="24" viewBox="0 0 88 24" fill="none" xmlns="http://www.w3.org/2000/svg">
<path d="M13.4738 10.663H25.7617V23.413H21.8744L20.5237 21.163C18.4153 23.0543 15.7689 24 12.5843 24C10.3442 24 8.27975 23.587 6.391 22.7609C4.52421 21.9348 2.98686 20.663 1.77894 18.9457C0.59298 17.2283 0 15.2065 0 12.8804V11.1196C0 7.64131 1.24086 4.92391 3.72259 2.96739C6.22628 0.989131 9.36688 0 13.1444 0C16.0654 0 18.569 0.597826 20.6555 1.79348C22.7419 2.98913 24.1584 4.61957 24.9051 6.68478L18.613 8.34783C18.1518 7.28261 17.427 6.44565 16.4387 5.83696C15.4724 5.22826 14.3413 4.92391 13.0456 4.92391C11.2886 4.92391 9.83907 5.44565 8.69703 6.48913C7.555 7.51087 6.98398 8.98913 6.98398 10.9239V13.0761C6.98398 14.9457 7.555 16.413 8.69703 17.4783C9.86103 18.5435 11.3325 19.0761 13.1114 19.0761C15.8347 19.0761 17.7674 17.7391 18.9095 15.0652H13.4738V10.663Z" fill="#F1935C"/>
<path d="M29.8366 23.413V0.586957H36.3923L48.219 13.5H48.2848V0.586957H54.8076V23.413H48.4825L36.4253 10.2065H36.3594V23.413H29.8366Z" fill="#F1935C"/>
<path d="M79.6299 23.413L78.2792 20.0217H66.0902L64.7066 23.413H57.492L68.0009 0.391305H76.9285L87.2727 23.413H79.6299ZM68.0997 15.163H76.3356L72.2835 5.08696H72.2176L68.0997 15.163Z" fill="#F1935C"/>
</svg>
