<svg width="51" height="50" viewBox="0 0 51 50" fill="none" xmlns="http://www.w3.org/2000/svg">
<path d="M31.8367 29.6535C33.7179 27.3762 34.906 24.4554 34.906 21.2376C34.906 14.0099 29.0149 8.1188 21.7872 8.1188C14.5594 8.1188 8.66833 14.0099 8.66833 21.2376C8.66833 28.4653 14.5594 34.3564 21.7872 34.3564C24.9555 34.3564 27.9258 33.2178 30.203 31.2871L40.401 41.4851C40.6486 41.7327 40.9456 41.8317 41.2426 41.8317C41.5396 41.8317 41.8367 41.7327 42.0842 41.4851C42.5297 41.0396 42.5297 40.2475 42.0842 39.802L31.8367 29.6535ZM21.7376 31.9802C15.7971 31.9802 10.9951 27.1782 10.9951 21.2376C10.9951 15.297 15.7971 10.495 21.7376 10.495C27.6782 10.495 32.4802 15.297 32.4802 21.2376C32.4802 27.1782 27.6782 31.9802 21.7376 31.9802Z" fill="#AAAAAA"/>
</svg>
