<svg width="70" height="70" viewBox="0 0 70 70" fill="none" xmlns="http://www.w3.org/2000/svg">
<path d="M0 20C0 8.9543 8.95431 0 20 0H50C61.0457 0 70 8.95431 70 20V50C70 61.0457 61.0457 70 50 70H20C8.9543 70 0 61.0457 0 50V20Z" fill="#F1935C"/>
<path d="M34.9998 32C38.3135 32 40.9998 29.3137 40.9998 26C40.9998 22.6863 38.3135 20 34.9998 20C31.686 20 28.9998 22.6863 28.9998 26C28.9998 29.3137 31.686 32 34.9998 32Z" fill="white"/>
<path d="M35.5 50.9999C41.299 50.9999 46 48.3136 46 44.9999C46 41.6862 41.299 38.9999 35.5 38.9999C29.701 38.9999 25 41.6862 25 44.9999C25 48.3136 29.701 50.9999 35.5 50.9999Z" fill="white"/>
</svg>
