<svg width="54" height="33" viewBox="0 0 54 33" fill="none" xmlns="http://www.w3.org/2000/svg">
<path d="M34.911 20.4152H1.07804C0.886215 20.4152 0.707104 20.3092 0.599637 20.1322C0.49217 19.9552 0.470215 19.7297 0.540704 19.5301L7.17187 0.907517C7.25912 0.662007 7.47232 0.500488 7.70863 0.500488H36.4167C36.653 0.500488 36.8657 0.662007 36.9535 0.907517L41.1701 12.7495C41.2886 13.0809 41.1435 13.4569 40.8471 13.5887C40.5513 13.7205 40.2139 13.559 40.0966 13.2276L36.025 1.79264H8.10094L1.93026 19.123H34.911C35.2306 19.123 35.4888 19.4118 35.4888 19.7691C35.4888 20.1264 35.23 20.4152 34.911 20.4152Z" fill="#F1935C"/>
<path d="M22.0631 20.4152C21.7442 20.4152 21.4854 20.1264 21.4854 19.7691V1.14657C21.4854 0.789931 21.7442 0.500488 22.0631 0.500488C22.3821 0.500488 22.6409 0.789931 22.6409 1.14657V19.7691C22.6409 20.1258 22.3821 20.4152 22.0631 20.4152Z" fill="#F1935C"/>
<path d="M11.4535 20.4151C11.4165 20.4151 11.3784 20.4112 11.3402 20.4022C11.0271 20.3331 10.8243 19.9926 10.8861 19.6424L14.2014 1.01984C14.2638 0.670307 14.5665 0.444179 14.8809 0.512017C15.194 0.581794 15.3968 0.922277 15.335 1.27181L12.0197 19.8944C11.9654 20.2019 11.7239 20.4151 11.4535 20.4151Z" fill="#F1935C"/>
<path d="M32.6725 20.415C32.4021 20.415 32.1612 20.2024 32.1068 19.8949L28.7916 1.27232C28.7292 0.922144 28.932 0.582306 29.2451 0.51253C29.5617 0.444692 29.8616 0.670174 29.9246 1.02035L33.2399 19.6429C33.3023 19.9931 33.0995 20.3329 32.7863 20.4027C32.7476 20.4111 32.7095 20.415 32.6725 20.415Z" fill="#F1935C"/>
<path d="M39.7319 11.1032H4.39321C4.07427 11.1032 3.81543 10.8137 3.81543 10.4571C3.81543 10.1005 4.07427 9.81104 4.39321 9.81104H39.7319C40.0514 9.81104 40.3097 10.1005 40.3097 10.4571C40.3097 10.8137 40.0514 11.1032 39.7319 11.1032Z" fill="#F1935C"/>
<path d="M34.7588 24.4426H1.07778C0.758845 24.4426 0.5 24.1538 0.5 23.7965V19.7689C0.5 19.4116 0.758845 19.1228 1.07778 19.1228H34.9108C35.2303 19.1228 35.4886 19.4116 35.4886 19.7689C35.4886 20.1262 35.2303 20.415 34.9108 20.415H1.65556V23.1505H34.7588C35.0783 23.1505 35.3366 23.4392 35.3366 23.7965C35.3366 24.1538 35.0783 24.4426 34.7588 24.4426Z" fill="#F1935C"/>
<path d="M25.4078 28.4708H18.7194C18.4004 28.4708 18.1416 28.182 18.1416 27.8248V23.7965C18.1416 23.4392 18.4004 23.1504 18.7194 23.1504H25.4078C25.7267 23.1504 25.9855 23.4392 25.9855 23.7965V27.8248C25.9855 28.182 25.7267 28.4708 25.4078 28.4708ZM19.2972 27.1787H24.83V24.4425H19.2972V27.1787Z" fill="#F1935C"/>
<path d="M28.7225 32.4999H15.403C15.084 32.4999 14.8252 32.2111 14.8252 31.8538V29.4588C14.8252 28.2022 15.7398 27.1794 16.8636 27.1794H27.2619C28.3857 27.1794 29.2997 28.2022 29.2997 29.4588V31.8538C29.3003 32.2105 29.0414 32.4999 28.7225 32.4999ZM15.9808 31.2077H28.1442V29.4588C28.1442 28.9142 27.7478 28.4716 27.2619 28.4716H16.8642C16.3771 28.4716 15.9813 28.9148 15.9813 29.4588V31.2077H15.9808Z" fill="#F1935C"/>
<path d="M44 31.4998C38.7618 31.4998 34.5 27.2379 34.5 21.9998C34.5 16.7616 38.7618 12.4998 44 12.4998C49.2382 12.4998 53.5 16.761 53.5 21.9998C53.5 27.2373 49.2382 31.4998 44 31.4998ZM44 13.6898C39.4185 13.6898 35.6906 17.4176 35.6906 21.9992C35.6906 26.5807 39.4185 30.3085 44 30.3085C48.5815 30.3085 52.3094 26.5813 52.3094 21.9998C52.3094 17.4182 48.5815 13.6898 44 13.6898Z" fill="#F1935C"/>
<path d="M47.9876 21.7173C48.0249 21.6459 47.9736 21.5601 47.8936 21.5601H45.3553H44.4092C44.3468 21.5601 44.2978 21.5061 44.3033 21.4435L44.7285 16.6167C44.7388 16.5001 44.5829 16.4537 44.5287 16.5573L41.0124 23.2822C40.9751 23.3536 41.0264 23.4394 41.1064 23.4394H43.6447H44.5908C44.6532 23.4394 44.7022 23.4934 44.6967 23.556L44.2715 28.3828C44.2612 28.4994 44.4171 28.5458 44.4713 28.4422L47.9876 21.7173Z" fill="#F1935C"/>
</svg>
