<svg width="34" height="32" viewBox="0 0 34 32" fill="none" xmlns="http://www.w3.org/2000/svg">
<path d="M21.5 19.5L25 16.5L27 18.5L30 16" stroke="#F1935C" stroke-width="1.5"/>
<mask id="path-2-inside-1_108_1793" fill="white">
<rect x="0.5" width="33" height="26" rx="1"/>
</mask>
<rect x="0.5" width="33" height="26" rx="1" stroke="#F1935C" stroke-width="3" mask="url(#path-2-inside-1_108_1793)"/>
<mask id="path-3-inside-2_108_1793" fill="white">
<rect x="0.5" y="22" width="33" height="4" rx="1"/>
</mask>
<rect x="0.5" y="22" width="33" height="4" rx="1" stroke="#F1935C" stroke-width="3" mask="url(#path-3-inside-2_108_1793)"/>
<mask id="path-4-inside-3_108_1793" fill="white">
<rect x="9.5" y="29" width="15" height="3" rx="1"/>
</mask>
<rect x="9.5" y="29" width="15" height="3" rx="1" stroke="#F1935C" stroke-width="3" mask="url(#path-4-inside-3_108_1793)"/>
<path d="M14.0747 25.951C14.098 25.8341 14.2006 25.75 14.3198 25.75H19.6802C19.7994 25.75 19.902 25.8341 19.9253 25.951L20.5253 28.951C20.5563 29.1057 20.438 29.25 20.2802 29.25H13.7198C13.562 29.25 13.4437 29.1057 13.4747 28.951L14.0747 25.951Z" stroke="#F1935C" stroke-width="1.5"/>
<path d="M4.5 4.5H13.5" stroke="#F1935C" stroke-width="1.5" stroke-linecap="round"/>
<path d="M4.5 7.5H13.5" stroke="#F1935C" stroke-width="1.5" stroke-linecap="round"/>
<path d="M4.5 10.5H13.5" stroke="#F1935C" stroke-width="1.5" stroke-linecap="round"/>
<path d="M4.5 13.5H13.5" stroke="#F1935C" stroke-width="1.5" stroke-linecap="round"/>
<path d="M4.5 16.5H13.5" stroke="#F1935C" stroke-width="1.5" stroke-linecap="round"/>
<path d="M4.5 19H10.5" stroke="#F1935C" stroke-width="1.5" stroke-linecap="round"/>
<rect x="20.25" y="7.75" width="1.5" height="4.5" stroke="#F1935C" stroke-width="1.5"/>
<rect x="28.25" y="10.75" width="1.5" height="1.5" stroke="#F1935C" stroke-width="1.5"/>
<rect x="24.25" y="5.75" width="1.5" height="6.5" stroke="#F1935C" stroke-width="1.5"/>
</svg>
