<svg width="54" height="54" viewBox="0 0 54 54" fill="none" xmlns="http://www.w3.org/2000/svg">
<path d="M43.8409 16.3415L27.2224 10.0763C26.9527 9.9749 26.6558 9.9749 26.3861 10.0763L9.76759 16.3415C9.30585 16.5157 9.00059 16.9573 9.00059 17.4511V20.9648C9.00059 21.6192 9.53168 22.1503 10.1861 22.1503H11.0372V25.4192C11.0372 26.0736 11.5683 26.6047 12.2227 26.6047H12.3081V32.7934H12.2227C11.5683 32.7934 11.0372 33.3245 11.0372 33.9789V37.5181H10.1855C9.53109 37.5181 9 38.0492 9 38.7036V43.6671C9 44.3215 9.53109 44.8526 10.1855 44.8526H40.2227C40.8771 44.8526 41.4082 44.3215 41.4082 43.6671C41.4082 43.0127 40.8771 42.4816 40.2227 42.4816H11.3709V39.889H40.8834C41.5377 39.889 42.0688 39.3579 42.0688 38.7036C42.0688 38.0492 41.5377 37.5181 40.8834 37.5181H35.5664V35.1643H41.3858C42.0402 35.1643 42.5713 34.6332 42.5713 33.9789C42.5713 33.3245 42.0402 32.7934 41.3858 32.7934H41.2999V26.6047H41.3858C42.0402 26.6047 42.5713 26.0736 42.5713 25.4192V22.1503H43.423C44.0774 22.1503 44.6085 21.6192 44.6085 20.9648V17.4511C44.6079 16.9573 44.3027 16.5157 43.8409 16.3415ZM11.3709 18.2708L26.804 12.4525L42.237 18.2708V19.7787H11.3709V18.2708ZM19.2276 32.7934H19.1417V26.6047H19.2276C19.882 26.6047 20.4131 26.0736 20.4131 25.4192V22.1503H31.4925V25.4192C31.8943 29.1419 31.8912 29.2499 32.334 29.811L31.4925 35.338L31.2754 37.5181H23.3574C22.703 37.5181 23.2051 36.8637 23.2051 37.5181H22.116H20.4131V33.9789C20.4131 33.3245 19.8826 32.7934 19.2276 32.7934ZM24.487 38.1643H29.121V37.5181H24.487V38.1643ZM18.0422 22.1503V24.2337H13.4082V22.1503H18.0422ZM14.679 26.6047H16.7713V32.7934H14.679V26.6047ZM13.4082 35.1643H18.0422V37.5181H13.4082V35.1643ZM31.4925 37.5181L31.334 36.811C31.1755 38.1432 31.4413 36.9789 31.334 36.811L31.4925 35.338L31.834 31.7306L32.2086 30.1659C32.334 29.811 31.834 29.311 31.4925 25.4192V22.1503H33.1954V25.4192C33.1954 26.0736 33.7265 26.6047 34.3809 26.6047H34.4668V32.7934H34.3809C33.7265 32.7934 33.1954 33.3245 33.1954 33.9789V37.5181H31.4925ZM38.9289 32.7934H36.8372V26.6047H38.9289V32.7934ZM40.2003 24.2337H35.5664V22.1503H40.2003V24.2337Z" fill="#F1935C"/>
<path d="M9.76748 16.3415L26.386 10.0763C26.6557 9.9749 26.9526 9.9749 27.2223 10.0763L43.8408 16.3415C44.3025 16.5157 44.6078 16.9573 44.6078 17.4511V20.9648C44.6078 21.6192 44.0767 22.1503 43.4223 22.1503H42.5712V25.4192C42.5712 26.0736 42.0401 26.6047 41.3857 26.6047H41.3003V32.7934H41.3857C42.0401 32.7934 42.5712 33.3245 42.5712 33.9789V37.5181H43.4229C44.0773 37.5181 44.6084 38.0492 44.6084 38.7036V43.6671C44.6084 44.3215 44.0773 44.8526 43.4229 44.8526H13.3857C12.7313 44.8526 12.2002 44.3215 12.2002 43.6671C12.2002 43.0127 12.7313 42.4816 13.3857 42.4816H42.2375V39.889H12.725C12.0707 39.889 11.5396 39.3579 11.5396 38.7036C11.5396 38.0492 12.0707 37.5181 12.725 37.5181H18.042V35.1643H12.2226C11.5682 35.1643 11.0371 34.6332 11.0371 33.9789C11.0371 33.3245 11.5682 32.7934 12.2226 32.7934H12.3085V26.6047H12.2226C11.5682 26.6047 11.0371 26.0736 11.0371 25.4192V22.1503H10.1854C9.53098 22.1503 8.99988 21.6192 8.99988 20.9648V17.4511C9.00047 16.9573 9.30574 16.5157 9.76748 16.3415ZM42.2375 18.2708L26.8044 12.4525L11.3714 18.2708V19.7787H42.2375V18.2708ZM34.3808 32.7934H34.4667V26.6047H34.3808C33.7264 26.6047 33.1953 26.0736 33.1953 25.4192V22.1503H22.1159V25.4192C21.7141 29.1419 21.7172 29.2499 21.2744 29.811L22.1159 35.338L22.333 37.5181H30.251C30.9054 37.5181 30.4033 36.8637 30.4033 37.5181H31.4924H33.1953V33.9789C33.1953 33.3245 33.7258 32.7934 34.3808 32.7934ZM29.1214 38.1643H24.4874V37.5181H29.1214V38.1643ZM35.5662 22.1503V24.2337H40.2002V22.1503H35.5662ZM38.9294 26.6047H36.8371V32.7934H38.9294V26.6047ZM40.2002 35.1643H35.5662V37.5181H40.2002V35.1643ZM22.1159 37.5181L22.2744 36.811C22.4329 38.1432 22.1671 36.9789 22.2744 36.811L22.1159 35.338L21.7744 31.7306L21.3998 30.1659C21.2744 29.811 21.7744 29.311 22.1159 25.4192V22.1503H20.413V25.4192C20.413 26.0736 19.8819 26.6047 19.2275 26.6047H19.1416V32.7934H19.2275C19.8819 32.7934 20.413 33.3245 20.413 33.9789V37.5181H22.1159ZM14.6795 32.7934H16.7712V26.6047H14.6795V32.7934ZM13.4081 24.2337H18.042V22.1503H13.4081V24.2337Z" fill="#F1935C"/>
<g filter="url(#filter0_d_119_16579)">
<path d="M30.7742 28.6642C30.8166 28.584 30.7582 28.4878 30.6674 28.4878H27.7831H26.7079C26.6371 28.4878 26.5814 28.4273 26.5877 28.357L27.0708 22.9425C27.0825 22.8116 26.9054 22.7596 26.8438 22.8758L22.8481 30.4195C22.8056 30.4997 22.864 30.5959 22.9549 30.5959H25.8392H26.9144C26.9852 30.5959 27.0409 30.6565 27.0346 30.7268L26.5515 36.1412C26.5398 36.2721 26.7169 36.3241 26.7785 36.2079L30.7742 28.6642Z" fill="#F1935C"/>
<path d="M27.7831 28.9878H30.0369L27.2166 34.3124L27.5326 30.7714C27.5326 30.7713 27.5326 30.7713 27.5326 30.7712C27.5653 30.4058 27.2764 30.0959 26.9144 30.0959H25.8392H23.5854L26.4056 24.7713L26.0897 28.3123C26.0897 28.3124 26.0896 28.3124 26.0896 28.3125C26.057 28.6779 26.3459 28.9878 26.7079 28.9878H27.7831Z" stroke="#F1935C"/>
</g>
<defs>
<filter id="filter0_d_119_16579" x="21.834" y="22.8113" width="9.9541" height="15.4612" filterUnits="userSpaceOnUse" color-interpolation-filters="sRGB">
<feFlood flood-opacity="0" result="BackgroundImageFix"/>
<feColorMatrix in="SourceAlpha" type="matrix" values="0 0 0 0 0 0 0 0 0 0 0 0 0 0 0 0 0 0 127 0" result="hardAlpha"/>
<feOffset dy="1"/>
<feGaussianBlur stdDeviation="0.5"/>
<feComposite in2="hardAlpha" operator="out"/>
<feColorMatrix type="matrix" values="0 0 0 0 0 0 0 0 0 0 0 0 0 0 0 0 0 0 0.32 0"/>
<feBlend mode="normal" in2="BackgroundImageFix" result="effect1_dropShadow_119_16579"/>
<feBlend mode="normal" in="SourceGraphic" in2="effect1_dropShadow_119_16579" result="shape"/>
</filter>
</defs>
</svg>
