<svg width="32" height="33" viewBox="0 0 32 33" fill="none" xmlns="http://www.w3.org/2000/svg">
<g clip-path="url(#clip0_119_16547)">
<path d="M27.6411 32.2883H4.32299C2.036 32.2883 0.175781 30.4277 0.175781 28.1411V4.82299C0.175781 2.536 2.036 0.675781 4.32299 0.675781H27.6414C29.9277 0.675781 31.7883 2.536 31.7883 4.82299V28.1414C31.7883 30.4277 29.9277 32.2883 27.6411 32.2883ZM4.32299 2.78328C3.19829 2.78328 2.28328 3.69829 2.28328 4.82299V28.1414C2.28328 29.2661 3.19829 30.1808 4.32299 30.1808H27.6414C28.7661 30.1808 29.6808 29.2661 29.6808 28.1411V4.82299C29.6808 3.69829 28.7661 2.78328 27.6411 2.78328H4.32299Z" fill="#F1935C"/>
<path d="M24.6561 19.5C23.3586 19.5 22.8613 17.8684 22.3349 16.1404C22.0131 15.0854 21.5273 13.4907 20.9935 13.4907C20.4596 13.4907 19.9738 15.0854 19.652 16.1404C19.1256 17.8681 18.628 19.5 17.3308 19.5C16.0331 19.5 15.5358 17.8681 15.0093 16.1402C14.6878 15.0851 14.2018 13.4907 13.6681 13.4907C13.1343 13.4907 12.6485 15.0854 12.3267 16.1404C11.8003 17.8681 11.303 19.5 10.0052 19.5C8.70752 19.5 8.21021 17.8681 7.68376 16.1404C7.36226 15.0854 6.87619 13.4907 6.34233 13.4907C5.80847 13.4907 5.32266 15.0851 5.00117 16.1402C4.92118 16.4025 4.637 16.5515 4.36636 16.4748C4.09547 16.3975 3.94111 16.1219 4.0211 15.8596C4.54755 14.1319 5.04487 12.5 6.34259 12.5C7.64031 12.5 8.13763 14.1319 8.66408 15.8598C8.98557 16.9149 9.47164 18.5093 10.0052 18.5093C10.5388 18.5093 11.0249 16.9149 11.3464 15.8598C11.8729 14.1321 12.3704 12.5 13.6679 12.5C14.9654 12.5 15.4629 14.1319 15.9894 15.8596C16.3111 16.9146 16.7969 18.5093 17.3308 18.5093C17.8644 18.5093 18.3502 16.9149 18.672 15.8598C19.1984 14.1319 19.696 12.5 20.9935 12.5C22.2909 12.5 22.7885 14.1319 23.3149 15.8598C23.6367 16.9149 24.1225 18.5093 24.6561 18.5093C25.1897 18.5093 25.6755 16.9156 25.997 15.8608C26.179 15.2634 27.1595 15.544 26.9776 16.1414C26.4509 17.8686 25.9538 19.5 24.6561 19.5Z" fill="#F1935C"/>
</g>
<defs>
<clipPath id="clip0_119_16547">
<rect width="32" height="32" fill="white" transform="translate(0 0.5)"/>
</clipPath>
</defs>
</svg>
