<svg width="34" height="33" viewBox="0 0 34 33" fill="none" xmlns="http://www.w3.org/2000/svg">
<path d="M17.8592 21.4731L16.4531 20.2029C16.2701 20.0582 16.0534 19.956 15.8247 19.9065L11.5686 19.0055C11.3786 18.9655 11.1924 19.0863 11.1521 19.2763C11.112 19.466 11.2332 19.6525 11.4229 19.6929L15.6776 20.5935C15.8005 20.6199 15.9178 20.6754 15.9993 20.7389L17.4054 22.0091C17.9076 22.4067 18.0193 23.1331 17.6604 23.6631L17.5125 23.8805C17.1598 24.4004 16.4812 24.5707 15.9259 24.2802L14.3562 23.1362C14.3435 23.1274 14.3305 23.119 14.3172 23.1116C14.138 23.0143 13.9445 22.9546 13.726 22.9321L11.0836 22.7832C10.988 22.779 10.8939 22.8117 10.8236 22.8777C10.7537 22.9434 10.7133 23.0344 10.7126 23.1306C10.7017 24.2946 10.2922 25.4815 9.55773 26.5153L5.23595 21.8608C5.89279 21.1151 6.42809 20.4186 6.94092 19.7456C7.91774 18.4632 8.76144 17.3554 10.1401 16.4003C10.9325 15.8513 11.9638 15.7674 12.8465 16.1874L13.7611 16.5721C13.9406 16.6472 14.1461 16.5629 14.2213 16.3845C14.2964 16.2057 14.2125 15.9995 14.0337 15.9244L13.1338 15.5464C12.04 15.0248 10.7393 15.1309 9.74038 15.8229C8.27005 16.8411 7.39543 17.9897 6.38243 19.3199C5.88962 19.9665 5.37539 20.6353 4.75544 21.3431L4.35817 20.9156C4.2946 20.8475 4.20679 20.8071 4.1137 20.8039C4.01571 20.7962 3.93 20.8338 3.86151 20.8977L1.2879 23.288C1.14599 23.42 1.13756 23.642 1.26963 23.7843L7.42529 30.4127C7.49449 30.4872 7.58862 30.5248 7.68276 30.5248C7.76846 30.5248 7.85417 30.4935 7.92196 30.4306L10.4956 28.0407C10.5637 27.9775 10.6041 27.8893 10.6076 27.7966C10.6111 27.7032 10.5774 27.6129 10.5138 27.5444L10.0446 27.039C10.8363 25.9684 11.3119 24.7362 11.4004 23.5047L13.6705 23.6322C13.7727 23.6424 13.8711 23.6719 13.9631 23.7189L15.5321 24.8626C15.5444 24.8714 15.5574 24.8798 15.5708 24.8869C16.4489 25.3656 17.5332 25.1018 18.0938 24.275L18.2413 24.0576C18.8065 23.2247 18.6309 22.0828 17.8592 21.4731ZM7.70137 29.6769L2.02342 23.563L4.08209 21.6511L9.76005 27.765L7.70137 29.6769Z" stroke="#F1935C"/>
<path d="M30.6264 4.92649C27.6407 1.7115 22.5957 1.52463 19.379 4.51061C17.8212 5.95741 16.9202 7.92406 16.8416 10.0484C16.7825 11.6445 17.1935 13.1858 18.0151 14.5146L15.2869 17.0485C15.145 17.1805 15.1366 17.4025 15.2687 17.5448C15.3379 17.6193 15.432 17.6568 15.5261 17.6568C15.6118 17.6568 15.6975 17.6256 15.7653 17.5627L18.4176 15.0997C18.5876 15.3267 18.7678 15.5472 18.9638 15.758C19.1602 15.9691 19.3653 16.1675 19.5781 16.3523L17.3084 18.4605C17.1665 18.5926 17.158 18.8146 17.2901 18.9568C17.3593 19.0313 17.4531 19.0689 17.5476 19.0689C17.6333 19.0689 17.719 19.0376 17.7868 18.9747L20.137 16.7921C21.5184 17.7903 23.1563 18.2961 24.7988 18.2961C26.738 18.2961 28.6818 17.5936 30.2115 16.1732C31.7693 14.7264 32.6703 12.7597 32.749 10.6354C32.8276 8.511 32.0732 6.48428 30.6264 4.92649ZM29.7324 15.6589C26.8009 18.3815 22.2009 18.2115 19.478 15.2796C18.1591 13.8595 17.4724 12.0105 17.5441 10.0737C17.6154 8.13691 18.4373 6.34378 19.8574 5.02484C21.2104 3.76842 22.9519 3.08559 24.7882 3.08559C24.8796 3.08559 24.9712 3.08734 25.0629 3.09086C26.9997 3.16251 28.7928 3.98408 30.1118 5.40419C31.4307 6.82429 32.1174 8.67327 32.0458 10.6101C31.9745 12.5472 31.1525 14.34 29.7324 15.6589Z" stroke="#F1935C"/>
<path d="M19.1713 30.5805H15.5261C15.3322 30.5805 15.1748 30.4235 15.1748 30.2293V27.5485C15.1748 27.3543 15.3322 27.1973 15.5261 27.1973H19.1717C19.3659 27.1973 19.5229 27.3543 19.5229 27.5485V30.2293C19.5226 30.4231 19.3656 30.5805 19.1713 30.5805ZM15.8773 29.878H18.8204V27.8998H15.8773V29.878Z" stroke="#F1935C"/>
<path d="M25.8045 30.5804H22.1589C21.9646 30.5804 21.8076 30.4234 21.8076 30.2292V22.3366C21.8076 22.1424 21.9646 21.9854 22.1589 21.9854H25.8045C25.9987 21.9854 26.1557 22.1424 26.1557 22.3366V30.2292C26.1557 30.4231 25.9987 30.5804 25.8045 30.5804ZM22.5101 29.8779H25.4532V22.6879H22.5101V29.8779Z" stroke="#F1935C"/>
<path d="M32.4373 30.5805H28.7917C28.5974 30.5805 28.4404 30.4235 28.4404 30.2293V19.9678C28.4404 19.7736 28.5974 19.6166 28.7917 19.6166C28.9859 19.6166 29.1429 19.7736 29.1429 19.9678V29.878H32.0861V17.1252C32.0861 16.9309 32.2431 16.7739 32.4373 16.7739C32.6315 16.7739 32.7886 16.9309 32.7886 17.1252V30.2293C32.7886 30.4231 32.6315 30.5805 32.4373 30.5805Z" stroke="#F1935C"/>
<path d="M20.4172 12.7869C20.3164 12.7869 20.2163 12.7437 20.1464 12.6601C20.0224 12.5108 20.0432 12.2892 20.1924 12.1655L23.2831 9.59789C23.3568 9.53642 23.4517 9.50832 23.549 9.51921C23.6442 9.53045 23.7313 9.58067 23.7889 9.65795L24.9937 11.2702L29.2245 7.79492C29.3752 7.67128 29.5961 7.69341 29.7187 7.84339C29.842 7.99338 29.8202 8.21466 29.6702 8.33795L25.1552 12.0464C25.0811 12.1072 24.9852 12.1346 24.8901 12.1237C24.7949 12.1121 24.7081 12.0623 24.6509 11.9853L23.4475 10.3749L20.6413 12.7061C20.5757 12.7602 20.4963 12.7869 20.4172 12.7869Z" stroke="#F1935C"/>
</svg>
