<svg width="36" height="35" viewBox="0 0 36 35" fill="none" xmlns="http://www.w3.org/2000/svg">
<path d="M17.9843 31.9682C14.1443 31.9682 10.5299 30.4776 7.80675 27.7706C4.9314 24.9129 3.42146 21.1035 3.55504 17.0443C3.79677 9.7086 9.71647 3.59449 17.0318 3.12454C18.8299 3.00963 20.6008 3.21918 22.2955 3.74867C22.4652 3.80178 22.5598 3.98235 22.5067 4.15198C22.4536 4.32129 22.2721 4.4156 22.1037 4.36314C20.4843 3.85682 18.7916 3.65597 17.073 3.76669C10.0847 4.21572 4.42926 10.0572 4.19848 17.0652C4.07101 20.9438 5.51336 24.5833 8.2606 27.3142C10.8624 29.9002 14.3158 31.3245 17.9843 31.3245C21.9402 31.3245 25.7113 29.622 28.3308 26.6533C30.5537 24.134 31.7778 20.8943 31.7778 17.5309C31.7778 16.1391 31.5712 14.766 31.1643 13.4498C31.1118 13.2802 31.2068 13.0999 31.3764 13.0471C31.547 12.9947 31.7266 13.09 31.7791 13.2596C32.2053 14.6376 32.4216 16.0748 32.4216 17.5309C32.4216 21.0513 31.1405 24.4423 28.8136 27.0792C26.0718 30.1863 22.1246 31.9682 17.9843 31.9682Z" stroke="#F1935C"/>
<path d="M17.5625 20.9611C17.4676 20.9611 17.3733 20.9189 17.3095 20.8384C16.7424 20.1197 16.4424 19.2545 16.4424 18.3365V17.1433C16.4424 15.9105 17.4454 14.9075 18.6782 14.9075H24.0188C24.1968 14.9075 24.3407 15.0517 24.3407 15.2294C24.3407 15.407 24.1968 15.5512 24.0188 15.5512H18.6782C17.8004 15.5512 17.0861 16.2655 17.0861 17.1433V18.3365C17.0861 19.1083 17.3382 19.8358 17.8149 20.4399C17.925 20.5796 17.9011 20.7821 17.7614 20.8919C17.7025 20.9382 17.6324 20.9611 17.5625 20.9611Z" stroke="#F1935C"/>
<path d="M21.7662 11.7232H19.5063C18.2735 11.7232 17.2705 10.7202 17.2705 9.48741V8.65985C17.2705 7.42705 18.2735 6.42407 19.5063 6.42407H21.1041C21.2821 6.42407 21.426 6.56827 21.426 6.74595C21.426 6.92363 21.2821 7.06783 21.1041 7.06783H19.5063C18.6282 7.06783 17.9143 7.78209 17.9143 8.65985V9.48741C17.9143 10.3655 18.6282 11.0794 19.5063 11.0794H21.7662C21.9442 11.0794 22.0881 11.2236 22.0881 11.4013C22.0881 11.579 21.9442 11.7232 21.7662 11.7232Z" stroke="#F1935C"/>
<path d="M25.3914 29.8664C25.2134 29.8664 25.0695 29.7226 25.0695 29.5446V25.9884C25.0695 24.1305 23.6829 22.59 21.8443 22.3985C21.7197 22.3856 21.5942 22.3789 21.4664 22.3789C21.2884 22.3789 21.1445 22.235 21.1445 22.057C21.1445 21.879 21.2884 21.7351 21.4664 21.7351C21.6148 21.7351 21.7645 21.7428 21.9112 21.7583C24.0785 21.9839 25.7133 23.7996 25.7133 25.9817V29.5446C25.7133 29.7222 25.5691 29.8664 25.3914 29.8664Z" stroke="#F1935C"/>
<path d="M10.1607 29.6019C9.98307 29.6019 9.83887 29.4581 9.83887 29.2801V27.6533C9.83887 26.7343 10.5866 25.9866 11.5056 25.9866C11.6832 25.9866 11.8274 26.1305 11.8274 26.3085C11.8274 26.4865 11.6832 26.6303 11.5056 26.6303C10.9416 26.6303 10.4826 27.0893 10.4826 27.6533V29.2801C10.4826 29.4581 10.3387 29.6019 10.1607 29.6019Z" stroke="#F1935C"/>
<path d="M6.03302 22.2854H4.58262C4.40494 22.2854 4.26074 22.1415 4.26074 21.9635C4.26074 21.7855 4.40494 21.6416 4.58262 21.6416H6.03302C6.21069 21.6416 6.3549 21.7855 6.3549 21.9635C6.3549 22.1415 6.21069 22.2854 6.03302 22.2854Z" stroke="#F1935C"/>
<path d="M4.88948 19.1352H3.93028C3.7526 19.1352 3.6084 18.9913 3.6084 18.8133C3.6084 18.6353 3.7526 18.4915 3.93028 18.4915H4.88948C5.06716 18.4915 5.21136 18.6353 5.21136 18.8133C5.21136 18.9913 5.06748 19.1352 4.88948 19.1352Z" stroke="#F1935C"/>
<path d="M7.98285 13.4403C7.92974 13.4403 7.87567 13.4271 7.8261 13.3994C7.67095 13.3125 7.61527 13.1168 7.70217 12.9613C8.0424 12.3523 8.68681 11.9738 9.384 11.9738C10.0905 11.9738 10.6654 11.3989 10.6654 10.6924V5.2877C10.6654 5.11002 10.8096 4.96582 10.9873 4.96582C11.165 4.96582 11.3092 5.11002 11.3092 5.2877V10.6921C11.3092 11.7536 10.4456 12.6172 9.384 12.6172C8.91985 12.6172 8.49078 12.8693 8.26418 13.2748C8.20527 13.3807 8.09551 13.4403 7.98285 13.4403Z" stroke="#F1935C"/>
<path d="M12.07 25.3129C12.0443 25.3129 12.0185 25.3096 11.9925 25.3035C11.8827 25.2765 11.7739 25.2465 11.6654 25.214C11.4951 25.1629 11.3989 24.9832 11.4504 24.813C11.5019 24.643 11.6809 24.5461 11.8518 24.598C11.9496 24.6276 12.0478 24.6543 12.147 24.6788C12.3195 24.7212 12.4247 24.896 12.3822 25.0685C12.3459 25.215 12.2145 25.3129 12.07 25.3129Z" stroke="#F1935C"/>
<path d="M13.677 25.5059C13.5643 25.5059 13.4517 25.5034 13.339 25.4982C13.1613 25.4898 13.0242 25.3392 13.0326 25.1615C13.041 24.9838 13.1935 24.8493 13.3693 24.8551C13.5756 24.8644 13.7826 24.8641 13.9889 24.8551C14.1656 24.8438 14.3172 24.9842 14.3253 25.1618C14.3333 25.3395 14.1962 25.4902 14.0185 25.4982C13.9049 25.5034 13.7909 25.5059 13.677 25.5059ZM15.2896 25.3208C15.1432 25.3208 15.0105 25.2201 14.9761 25.0714C14.9362 24.8982 15.044 24.7254 15.2175 24.6855C15.4197 24.6388 15.6212 24.5831 15.8165 24.5194C15.9858 24.4643 16.1671 24.5573 16.2221 24.726C16.2768 24.895 16.1844 25.0769 16.0155 25.1319C15.8027 25.2011 15.5828 25.2619 15.3624 25.3131C15.3379 25.3183 15.3138 25.3208 15.2896 25.3208ZM17.1108 24.6388C16.9959 24.6388 16.8845 24.5773 16.8266 24.4688C16.7429 24.3121 16.8018 24.117 16.9589 24.033C17.1395 23.9364 17.3187 23.8296 17.4922 23.7159C17.641 23.6184 17.8405 23.6596 17.938 23.8083C18.0356 23.957 17.9944 24.1563 17.8457 24.2541C17.6561 24.3787 17.4601 24.4952 17.2621 24.6008C17.2138 24.6262 17.162 24.6388 17.1108 24.6388ZM18.6813 23.4942C18.5973 23.4942 18.5136 23.4617 18.4505 23.3966C18.3266 23.2692 18.3291 23.0658 18.4569 22.9415C18.6043 22.7983 18.7456 22.646 18.8773 22.4896C18.9919 22.3534 19.1947 22.336 19.3308 22.4503C19.467 22.5646 19.4847 22.7677 19.3701 22.9038C19.2246 23.0767 19.0685 23.2447 18.9059 23.4031C18.8432 23.4636 18.7624 23.4942 18.6813 23.4942ZM19.8693 21.9556C19.812 21.9556 19.7544 21.9405 19.7016 21.9086C19.55 21.8159 19.5021 21.6179 19.5948 21.466C19.7065 21.2835 19.8146 21.0981 19.9221 20.913C20.011 20.7592 20.2076 20.7064 20.3621 20.7962C20.516 20.8853 20.5685 21.0826 20.479 21.2362C20.3689 21.4258 20.2582 21.6147 20.1442 21.8017C20.0837 21.9009 19.9778 21.9556 19.8693 21.9556ZM20.8746 20.2844C20.8134 20.2844 20.751 20.2667 20.6959 20.2303C20.5482 20.1312 20.5083 19.9316 20.6071 19.7835C20.7384 19.5872 20.8723 19.4028 21.0046 19.236C21.115 19.0973 21.3181 19.0738 21.4568 19.1842C21.5962 19.2949 21.6194 19.4974 21.5087 19.6364C21.387 19.7897 21.2637 19.9593 21.1424 20.1411C21.0802 20.2342 20.9785 20.2844 20.8746 20.2844ZM22.182 18.8514C22.0823 18.8514 21.9841 18.805 21.921 18.7184C21.8167 18.5746 21.8486 18.3734 21.9928 18.2691C22.1721 18.1394 22.3591 18.0261 22.5487 17.9334L22.6053 17.9067C22.7666 17.8317 22.9581 17.9021 23.0324 18.0634C23.1071 18.2247 23.037 18.4162 22.8757 18.4905L22.8319 18.5111C22.6755 18.5878 22.52 18.6814 22.3707 18.7899C22.3134 18.8317 22.2474 18.8514 22.182 18.8514ZM23.9836 18.1542C23.831 18.1542 23.6955 18.0454 23.6675 17.8902C23.6353 17.7155 23.7515 17.5478 23.9263 17.5156L24.0348 17.4956C24.217 17.4631 24.3985 17.4345 24.5807 17.4087C24.7558 17.3817 24.9193 17.5069 24.9441 17.6829C24.9689 17.8587 24.8459 18.0216 24.6698 18.0464C24.4957 18.0705 24.3219 18.0982 24.1487 18.1291L24.0419 18.1487C24.0222 18.1526 24.0026 18.1542 23.9836 18.1542Z" stroke="#F1935C"/>
<path d="M25.9239 17.9232C25.7543 17.9232 25.612 17.7903 25.603 17.6187C25.5934 17.4414 25.7295 17.2894 25.9069 17.2798C26.0163 17.2737 26.1261 17.2692 26.2355 17.2656C26.2391 17.2656 26.2423 17.2656 26.2461 17.2656C26.419 17.2656 26.5619 17.4031 26.5674 17.5772C26.5735 17.7549 26.4338 17.9036 26.2561 17.9091C26.1509 17.9126 26.0463 17.9171 25.941 17.9229C25.9358 17.9229 25.9301 17.9232 25.9239 17.9232Z" stroke="#F1935C"/>
<path d="M30.984 7.52198C31.0321 7.43265 30.966 7.32548 30.8632 7.32548H27.5997H26.3832C26.303 7.32548 26.24 7.25798 26.2471 7.17965L26.7938 1.14622C26.8071 1.00038 26.6066 0.942383 26.5369 1.07188L22.016 9.47801C21.9679 9.56735 22.034 9.67452 22.1368 9.67452H25.4003H26.6168C26.697 9.67452 26.76 9.74202 26.7529 9.82035L26.2062 15.8538C26.1929 15.9996 26.3934 16.0576 26.4631 15.9281L30.984 7.52198Z" fill="#F1935C"/>
<path d="M13.7886 16.9132C13.8169 16.8596 13.778 16.7953 13.7175 16.7953H11.7964H11.0803C11.0331 16.7953 10.996 16.7548 11.0002 16.7078L11.322 13.0877C11.3298 13.0002 11.2118 12.9654 11.1708 13.0431L8.50942 18.0868C8.48112 18.1404 8.52002 18.2047 8.58052 18.2047H10.5016H11.2178C11.265 18.2047 11.3021 18.2452 11.2979 18.2922L10.9761 21.9123C10.9683 21.9998 11.0863 22.0346 11.1273 21.9569L13.7886 16.9132Z" fill="#F1935C"/>
</svg>
