<svg width="70" height="70" viewBox="0 0 70 70" fill="none" xmlns="http://www.w3.org/2000/svg">
<path d="M0 20C0 8.9543 8.95431 0 20 0H50C61.0457 0 70 8.95431 70 20V50C70 61.0457 61.0457 70 50 70H20C8.9543 70 0 61.0457 0 50V20Z" fill="#F1935C" />
<path d="M18.9722 49.3168V22.4822C18.9722 20.5435 20.5437 18.972 22.4824 18.972H47.0538C48.9925 18.972 50.564 20.5435 50.564 22.4822V40.0332C50.564 41.9719 48.9925 43.5434 47.0538 43.5434H27.6797C26.6133 43.5434 25.6048 44.0281 24.9387 44.8608L20.8475 49.9746C20.2257 50.7519 18.9722 50.3123 18.9722 49.3168Z" stroke="white" stroke-width="3"/>
</svg>
