<svg width="41" height="40" viewBox="0 0 41 40" fill="none" xmlns="http://www.w3.org/2000/svg">
<path d="M20.6797 2V9.472" stroke="black" stroke-width="3.13" stroke-linecap="round" stroke-linejoin="round"/>
<path d="M5.73047 9.47461L10.4005 14.1446" stroke="black" stroke-width="3.13" stroke-linecap="round" stroke-linejoin="round"/>
<path d="M30.9595 14.1446L35.6295 9.47461" stroke="black" stroke-width="3.13" stroke-linecap="round" stroke-linejoin="round"/>
<path d="M3.86963 26.2849H9.47363" stroke="black" stroke-width="3.13" stroke-linecap="round" stroke-linejoin="round"/>
<path d="M20.6797 26.2832L22.5477 15.0752" stroke="black" stroke-width="3.13" stroke-linecap="round" stroke-linejoin="round"/>
<path d="M31.8896 26.2849H37.4937" stroke="black" stroke-width="3.13" stroke-linecap="round" stroke-linejoin="round"/>
<path d="M14.142 31.8898H5.736C3.39013 28.7675 2 24.886 2 20.68C2 10.3633 10.3633 2 20.68 2C30.9966 2 39.36 10.3633 39.36 20.68C39.36 24.886 37.9698 28.7675 35.624 31.8898L27.218 31.888" stroke="black" stroke-linecap="round" stroke-linejoin="round"/>
<path d="M20.6743 37.4929C23.7694 37.4929 26.2783 34.984 26.2783 31.8889C26.2783 28.7938 23.7694 26.2849 20.6743 26.2849C17.5792 26.2849 15.0703 28.7938 15.0703 31.8889C15.0703 34.984 17.5792 37.4929 20.6743 37.4929Z" stroke="black" stroke-linecap="round" stroke-linejoin="round"/>
</svg>
